<?xml version="1.0" encoding="UTF-8"?>
<svg xmlns="http://www.w3.org/2000/svg" xmlns:xlink="http://www.w3.org/1999/xlink" width="14pt" height="14pt" viewBox="0 0 14 14" version="1.1">
<g id="surface1820328">
<path style=" stroke:none;fill-rule:nonzero;fill:rgb(59.215686%,59.215686%,59.215686%);fill-opacity:1;" d="M 7.316406 5.972656 L 7.316406 8.203125 L 10.496094 8.203125 C 10.078125 9.550781 8.949219 10.519531 7.316406 10.519531 C 5.375 10.519531 3.796875 8.941406 3.796875 7 C 3.796875 5.058594 5.375 3.480469 7.316406 3.480469 C 8.191406 3.480469 8.988281 3.800781 9.605469 4.328125 L 11.246094 2.6875 C 10.210938 1.742188 8.832031 1.167969 7.316406 1.167969 C 4.09375 1.167969 1.484375 3.777344 1.484375 7 C 1.484375 10.222656 4.09375 12.832031 7.316406 12.832031 C 12.214844 12.832031 13.296875 8.253906 12.816406 5.980469 Z M 7.316406 5.972656 "/>
</g>
</svg>
